<svg id="Capa_1" data-name="Capa 1" xmlns="http://www.w3.org/2000/svg" xmlns:xlink="http://www.w3.org/1999/xlink" viewBox="0 0 145.27 150.24"><defs><style>.cls-1{fill:url(#Degradado_sin_nombre_5);}.cls-2{fill:#674d9a;}</style><linearGradient id="Degradado_sin_nombre_5" x1="29.35" y1="38.47" x2="116.41" y2="120.82" gradientUnits="userSpaceOnUse"><stop offset="0" stop-color="#5fc4e4"/><stop offset="1" stop-color="#60a7dc"/></linearGradient></defs><path class="cls-1" d="M69.55,15a64.51,64.51,0,0,0,3.08,128.94,64,64,0,0,0,34.26-9.85,3.81,3.81,0,0,0,1-5.44L106.74,127a3.68,3.68,0,0,0-5-.94,54.6,54.6,0,0,1-32,8.29,55.16,55.16,0,0,1-52-50.18H50a23.1,23.1,0,0,0,45.22,0h32.19a54.22,54.22,0,0,1-9,25.68,4.29,4.29,0,0,0,1,5.76l.63.48a4.41,4.41,0,0,0,6.37-1.07,63.79,63.79,0,0,0,10.72-35.6A64.58,64.58,0,0,0,69.55,15Zm3.08,78a13.61,13.61,0,1,1,13.6-13.6A13.61,13.61,0,0,1,72.63,93Zm0-36.71A23.15,23.15,0,0,0,50,74.66H17.84a55,55,0,0,1,109.58,0H95.24A23.15,23.15,0,0,0,72.63,56.3Z"/><path class="cls-2" d="M106.76,48a6.75,6.75,0,0,1-.71,0c-5.13-1-9-2.75-9.24-9.19-.1-3.45-2.15-6.77-3.89-9.93-8.75-16-22.92-18-37.31-8.39C48.17,25.45,44.7,33.45,42.8,41.83a62.41,62.41,0,0,0,5.37,42.72c1.1,2.19,2.32,3.46,5,3.7a8.8,8.8,0,0,1,8,8.65,9.44,9.44,0,0,1-17.94,4.6,8.74,8.74,0,0,1-.41-7c.68-1.78.19-3-.58-4.44-7.79-14.59-11.22-30-8.07-46.46C36.58,31,41.94,20,53,12.52a34.88,34.88,0,0,1,16.68-6.1c7.19-.61,13.81,1.93,19.55,6.16C101,21.29,105.28,33.85,106.76,48Z"/><path class="cls-2" d="M27,74.66c.76-1.73.64-3.53-.22-5.81-1.14-3-.93-3.11-3.58-.95a52,52,0,0,0-6.9,6.76Z"/><path class="cls-2" d="M106,81.77a9.51,9.51,0,0,0-13.1-4.53,9.32,9.32,0,0,0-3.46,13.37c1,1.58.79,2.57,0,4a53.08,53.08,0,0,1-12.86,15.23c-10.42,8.27-21.75,14.39-35.49,14.56a39.74,39.74,0,0,1-7.14-.63,23.65,23.65,0,0,1-20.1-22.33A27.39,27.39,0,0,1,19,84.16H10.18a45.16,45.16,0,0,0-3.33,9.75C4,106.91,9.72,121,21.24,127.55a36.42,36.42,0,0,0,21.55,4.86c24.13-2.17,42.51-13.57,54.36-34.95a6,6,0,0,1,3.33-3.06A9.25,9.25,0,0,0,106,81.77Z"/><path class="cls-2" d="M136.43,87.73c-.49-1.23-1-2.41-1.6-3.57h-9.24a43,43,0,0,1,4.06,8.53c4.7,13.51-2.32,27.12-16,31.15-7.69,2.26-15.18,1-22.56-1.58-.85-.31-1.69-1.11-2.72-.24-2.2,1.85-4.44,3.64-6.82,5.58,12.36,5.55,24.73,7.26,37.3,2.05,9.41-3.9,16.68-10.16,19.33-20.52A34,34,0,0,0,136.43,87.73Z"/><path class="cls-2" d="M117.67,74.66h11.08a63.94,63.94,0,0,0-18.16-15c-11.16-6.39-23.34-8.93-36.1-9a4.48,4.48,0,0,1-3.82-1.67,9.27,9.27,0,0,0-14-.34,9.42,9.42,0,1,0,14.6,11.82,3.76,3.76,0,0,1,3.42-1.71A60.79,60.79,0,0,1,103,65,61.67,61.67,0,0,1,117.67,74.66Z"/></svg>