<svg id="Capa_1" data-name="Capa 1" xmlns="http://www.w3.org/2000/svg" xmlns:xlink="http://www.w3.org/1999/xlink" viewBox="0 0 146.6 146.59"><defs><style>.cls-1{fill:url(#Degradado_sin_nombre_10);}</style><linearGradient id="Degradado_sin_nombre_10" x1="73.3" y1="132.4" x2="73.3" y2="19.1" gradientUnits="userSpaceOnUse"><stop offset="0" stop-color="#dedfdf"/><stop offset="0.62" stop-color="#e62e2c"/></linearGradient></defs><path class="cls-1" d="M70.21,8.86A64.51,64.51,0,0,0,73.3,137.8,64,64,0,0,0,107.56,128a3.82,3.82,0,0,0,1-5.44l-1.17-1.63a3.69,3.69,0,0,0-5-.94,54.6,54.6,0,0,1-32,8.29,55.16,55.16,0,0,1-52-50.18H50.69a23.1,23.1,0,0,0,45.22,0H128.1a54.24,54.24,0,0,1-9,25.68,4.29,4.29,0,0,0,1,5.76l.62.48a4.4,4.4,0,0,0,6.37-1.07,63.8,63.8,0,0,0,10.73-35.6A64.59,64.59,0,0,0,70.21,8.86Zm3.09,78A13.61,13.61,0,1,1,86.9,73.3,13.62,13.62,0,0,1,73.3,86.9Zm0-36.71A23.14,23.14,0,0,0,50.69,68.55H18.51a55,55,0,0,1,109.58,0H95.91A23.15,23.15,0,0,0,73.3,50.19Z"/></svg>