<svg id="Capa_1" data-name="Capa 1" xmlns="http://www.w3.org/2000/svg" viewBox="0 0 146.6 146.59"><defs><style>.cls-1{fill:#fff;}.cls-2{fill:#e62e2c;}.cls-3{fill:#674d9a;}</style></defs><polygon class="cls-1" points="119.26 117.65 93.67 134.95 49.2 134.95 22.59 111.12 12.14 79.54 13.03 76.18 53.26 76.54 63.97 62.24 81.67 62.24 92.64 75.98 134.97 76.71 134.97 88.71 119.26 117.65"/><path class="cls-2" d="M76.15,21.65C46.14,20.12,20,43.79,17.5,72.83H50.68a23.1,23.1,0,0,1,45.22,0h33.18C126.72,45.92,103.66,23.05,76.15,21.65Z"/><path d="M94.27,138.59a64.46,64.46,0,0,0,33.64-26.7c.28-.45.56-.9.83-1.35s.36-.6.53-.91a64.42,64.42,0,0,0,5.26-52.3l0-.09c-.31-.93-.64-1.86-1-2.78-.18-.45-.37-.89-.55-1.33s-.4-1-.61-1.48c-.38-.86-.78-1.71-1.19-2.56a1.24,1.24,0,0,1-.1-.2,64.25,64.25,0,0,0-25.82-27.33l-.23-.13c-.68-.39-1.37-.75-2.06-1.11l-1-.52-1-.48a64.19,64.19,0,0,0-50.47-2l-.2.07L48.62,18c-.55.22-1.1.45-1.64.69l-.18.09a63.62,63.62,0,0,0-16.89,11A64.27,64.27,0,0,0,12.53,56c-.12.33-.24.66-.35,1s-.24.74-.36,1.12c-.23.72-.45,1.45-.66,2.18,0,.11-.05.21-.08.31A63.92,63.92,0,0,0,8.85,74.5a64.73,64.73,0,0,0,3.3,23.64l.07.18c.31.91.63,1.8,1,2.69.19.48.4.95.6,1.43s.37.92.58,1.38q.59,1.32,1.23,2.61a1,1,0,0,1,.07.15,64.44,64.44,0,0,0,37.52,32.29l.82.27c.63.19,1.26.38,1.89.55s1.5.4,2.26.59l.71.17h.05a64.45,64.45,0,0,0,33.9-1.39l.25-.07Zm-21-84.11A23.15,23.15,0,0,0,50.68,72.83H18.5a55,55,0,0,1,109.58,0H95.9A23.15,23.15,0,0,0,73.29,54.48Zm13.6,23.1A13.6,13.6,0,1,1,73.29,64,13.62,13.62,0,0,1,86.89,77.58ZM70.47,132.52a55.16,55.16,0,0,1-52-50.19H50.68a23.1,23.1,0,0,0,45.22,0h32.2a54.31,54.31,0,0,1-9,25.68,4.12,4.12,0,0,0-.42.84,55.48,55.48,0,0,1-15.45,15,3.69,3.69,0,0,0-.81.37A54.67,54.67,0,0,1,70.47,132.52Z"/><path class="cls-3" d="M107.42,46.19a6.83,6.83,0,0,1-.71,0c-5.13-1-9-2.75-9.24-9.19-.1-3.44-2.15-6.77-3.88-9.93-8.75-16-22.93-18-37.32-8.39-7.43,4.94-10.9,13-12.8,21.32a62.28,62.28,0,0,0,5.37,42.72c1.1,2.2,2.32,3.46,5,3.7a8.82,8.82,0,0,1,8,8.65,9.45,9.45,0,0,1-17.95,4.61,8.77,8.77,0,0,1-.41-7c.68-1.78.2-3-.58-4.43-7.79-14.6-11.21-30-8.07-46.46,2.42-12.67,7.79-23.61,18.8-31.11A34.88,34.88,0,0,1,70.3,4.59C77.49,4,84.11,6.52,89.86,10.75,101.67,19.46,105.94,32,107.42,46.19Z"/><path class="cls-3" d="M27.69,72.83c.76-1.72.64-3.53-.22-5.81-1.14-3-.92-3.11-3.58-.94A52.53,52.53,0,0,0,17,72.83Z"/><path class="cls-3" d="M106.66,80a9.49,9.49,0,0,0-13.1-4.53A9.3,9.3,0,0,0,90.1,88.78c1,1.59.79,2.57,0,4A53.14,53.14,0,0,1,77.21,108c-10.41,8.28-21.74,14.39-35.48,14.56a39,39,0,0,1-7.15-.63,23.64,23.64,0,0,1-20.1-22.33,27.45,27.45,0,0,1,5.16-17.26H10.85a45.16,45.16,0,0,0-3.33,9.75c-2.87,13,2.86,27.07,14.38,33.64a36.45,36.45,0,0,0,21.56,4.87C67.58,128.41,86,117,97.81,95.63a6,6,0,0,1,3.33-3A9.26,9.26,0,0,0,106.66,80Z"/><path class="cls-3" d="M137.09,85.9c-.49-1.23-1-2.41-1.6-3.57h-9.23a43.55,43.55,0,0,1,4,8.53C135,104.37,128,118,114.27,122c-7.68,2.26-15.18,1-22.55-1.58-.86-.3-1.69-1.11-2.73-.24-2.2,1.85-4.44,3.64-6.81,5.58,12.36,5.55,24.72,7.26,37.29,2,9.41-3.9,16.68-10.16,19.34-20.52A34.08,34.08,0,0,0,137.09,85.9Z"/><path class="cls-3" d="M118.33,72.83h11.08a63.9,63.9,0,0,0-18.16-15c-11.15-6.39-23.34-8.93-36.1-9a4.46,4.46,0,0,1-3.82-1.67,9.27,9.27,0,0,0-14-.34A9.42,9.42,0,1,0,71.93,58.71,3.81,3.81,0,0,1,75.35,57a60.71,60.71,0,0,1,28.33,6.19A61.47,61.47,0,0,1,118.33,72.83Z"/></svg>