<svg id="Capa_1" data-name="Capa 1" xmlns="http://www.w3.org/2000/svg" xmlns:xlink="http://www.w3.org/1999/xlink" viewBox="0 0 65.09 135.89"><defs><style>.cls-1,.cls-4{fill:#fff;}.cls-1,.cls-10,.cls-2,.cls-3,.cls-7{stroke:#33363a;stroke-miterlimit:10;stroke-width:2.5px;}.cls-2,.cls-8{fill:#d8e5ea;}.cls-11,.cls-3{fill:#dee9ee;}.cls-5{clip-path:url(#clip-path);}.cls-6{fill:#d4ecf2;}.cls-7{fill:none;}.cls-9{clip-path:url(#clip-path-2);}.cls-10{fill:#3d79bd;}.cls-12{clip-path:url(#clip-path-3);}</style><clipPath id="clip-path"><path class="cls-1" d="M58.66,43.12a21.57,21.57,0,0,0-6.59-15.54V17.14a5.93,5.93,0,0,0-1.23-3.65c-2.24-2.86-7.75-8-18.41-8-13.53,0-26,12-26,22.71V113A4.73,4.73,0,0,0,8.74,117l20.6,12.28a5.53,5.53,0,0,0,5.52.09l15-9.13a4.72,4.72,0,0,0,2.26-4V60.66C56.13,56.73,58.66,49.22,58.66,43.12Z"/></clipPath><clipPath id="clip-path-2"><path class="cls-2" d="M17.72,43.12a14.83,14.83,0,0,0,29.65,0Z"/></clipPath><clipPath id="clip-path-3"><circle class="cls-3" cx="32.54" cy="43.12" r="5.06"/></clipPath></defs><path class="cls-4" d="M58.66,43.12a21.57,21.57,0,0,0-6.59-15.54V17.14a5.93,5.93,0,0,0-1.23-3.65c-2.24-2.86-7.75-8-18.41-8-13.53,0-26,12-26,22.71V113A4.73,4.73,0,0,0,8.74,117l20.6,12.28a5.53,5.53,0,0,0,5.52.09l15-9.13a4.72,4.72,0,0,0,2.26-4V60.66C56.13,56.73,58.66,49.22,58.66,43.12Z"/><g class="cls-5"><path class="cls-6" d="M57.66,49.6c0-6.1-2.53-12.61-6.59-16.54V23.62A5.9,5.9,0,0,0,49.84,20c-2.24-2.87-7.75-8-18.41-8-13.53,0-26,12-26,22.7v84.78a4.72,4.72,0,0,0,2.31,4.07l20.6,12.29a5.55,5.55,0,0,0,5.52.09l15-9.14a4.72,4.72,0,0,0,2.26-4V67.15C55.13,63.21,57.66,55.7,57.66,49.6Z"/></g><path class="cls-7" d="M58.66,43.12a21.57,21.57,0,0,0-6.59-15.54V17.14a5.93,5.93,0,0,0-1.23-3.65c-2.24-2.86-7.75-8-18.41-8-13.53,0-26,12-26,22.71V113A4.73,4.73,0,0,0,8.74,117l20.6,12.28a5.53,5.53,0,0,0,5.52.09l15-9.13a4.72,4.72,0,0,0,2.26-4V60.66C56.13,56.73,58.66,49.22,58.66,43.12Z"/><line class="cls-7" x1="32.54" y1="19.12" x2="32.54" y2="28.3"/><line class="cls-7" x1="32.54" y1="57.94" x2="32.54" y2="65.94"/><circle class="cls-7" cx="17.39" cy="87.71" r="2.3"/><line class="cls-7" x1="14.19" y1="99.47" x2="20.78" y2="99.47"/><line class="cls-7" x1="14.19" y1="106.53" x2="20.78" y2="106.53"/><path class="cls-8" d="M17.72,43.12a14.83,14.83,0,0,0,29.65,0Z"/><g class="cls-9"><path class="cls-4" d="M15.1,45.88S25,55.41,32.54,55.41,48.9,45.88,48.9,45.88l-2.83,10.2-10.59,5L21.72,58.94Z"/></g><path class="cls-7" d="M17.72,43.12a14.83,14.83,0,0,0,29.65,0Z"/><path class="cls-10" d="M32.54,28.3A14.82,14.82,0,0,0,17.72,43.12H47.37A14.82,14.82,0,0,0,32.54,28.3Z"/><circle class="cls-11" cx="32.54" cy="43.12" r="5.06"/><g class="cls-12"><path class="cls-4" d="M36.54,38.06s-.66,6.82-7.48,8.73,8.54,4.57,8.54,4.57L41,45.71Z"/></g><circle class="cls-7" cx="32.54" cy="43.12" r="5.06"/></svg>