<svg id="Capa_1" data-name="Capa 1" xmlns="http://www.w3.org/2000/svg" viewBox="0 0 146.6 146.59"><defs><style>.cls-fill-pokeball{fill:#e62e2c;}</style></defs><path class="cls-fill-pokeball" d="M76.16,18.36A55.08,55.08,0,0,0,18.51,68.55H50.69a23.1,23.1,0,0,1,45.22,0h32.18A55.26,55.26,0,0,0,76.16,18.36Z"/><path d="M94.28,134.3a64.35,64.35,0,0,0,33.63-26.7c.29-.45.56-.9.84-1.35.17-.3.35-.6.53-.9a64.42,64.42,0,0,0,5.26-52.3l0-.09c-.32-.94-.64-1.87-1-2.78-.17-.45-.36-.89-.54-1.33s-.4-1-.62-1.49c-.37-.86-.77-1.71-1.19-2.55a2,2,0,0,0-.1-.21,64.34,64.34,0,0,0-14.38-19,63.45,63.45,0,0,0-11.43-8.27l-.24-.14c-.68-.38-1.36-.75-2.05-1.1l-1-.52c-.33-.17-.67-.32-1-.48a64.14,64.14,0,0,0-50.47-2l-.2.08c-.55.21-1.1.43-1.64.66l-1.64.7-.19.08A64.19,64.19,0,0,0,12.54,51.69l-.36,1c-.12.37-.24.75-.35,1.12-.23.73-.46,1.45-.66,2.19l-.09.31a64.19,64.19,0,0,0,1.08,37.55,1.34,1.34,0,0,0,.07.18c.3.9.62,1.8,1,2.68.19.49.39,1,.59,1.44s.38.92.58,1.37c.39.88.81,1.75,1.24,2.62,0,0,.05.09.07.14a64.42,64.42,0,0,0,37.51,32.3l.83.26c.63.2,1.26.38,1.89.56s1.5.4,2.26.58l.71.18h0a64.6,64.6,0,0,0,33.91-1.38l.24-.08Zm-21-84.11A23.14,23.14,0,0,0,50.69,68.55H18.51a55,55,0,0,1,109.58,0H95.91A23.15,23.15,0,0,0,73.3,50.19ZM86.9,73.3A13.61,13.61,0,1,1,73.3,59.69,13.61,13.61,0,0,1,86.9,73.3ZM70.48,128.23a55.16,55.16,0,0,1-52-50.18H50.69a23.1,23.1,0,0,0,45.22,0H128.1a54.24,54.24,0,0,1-9,25.68,4.62,4.62,0,0,0-.42.83,55.31,55.31,0,0,1-15.44,15,4.22,4.22,0,0,0-.81.37A54.6,54.6,0,0,1,70.48,128.23Z"/></svg>