<?xml version="1.0" standalone="no"?>
<!DOCTYPE svg PUBLIC "-//W3C//DTD SVG 20010904//EN"
 "http://www.w3.org/TR/2001/REC-SVG-20010904/DTD/svg10.dtd">
<svg version="1.0" xmlns="http://www.w3.org/2000/svg"
 width="600.000000pt" height="600.000000pt" viewBox="0 0 600.000000 600.000000"
 preserveAspectRatio="xMidYMid meet">
<metadata>
Created by potrace 1.14, written by Peter Selinger 2001-2017
</metadata>
<g transform="translate(0.000000,600.000000) scale(0.100000,-0.100000)"
fill="#000000" stroke="none">
<path d="M2810 5734 c-103 -17 -121 -21 -152 -33 -16 -6 -28 -9 -28 -6 0 4
-103 -29 -135 -44 -11 -6 -46 -21 -77 -35 -167 -74 -421 -270 -530 -409 -18
-23 -38 -48 -45 -55 -7 -7 -16 -19 -20 -26 -5 -6 -46 -34 -93 -61 -90 -51
-226 -140 -248 -162 -7 -7 -16 -13 -20 -13 -4 0 -21 -13 -39 -28 -17 -15 -51
-43 -75 -62 -62 -49 -277 -266 -324 -325 -21 -27 -43 -55 -49 -62 -25 -31 -34
-42 -77 -103 -94 -133 -223 -366 -263 -475 -10 -27 -22 -54 -26 -60 -3 -5 -25
-68 -48 -138 -64 -196 -95 -338 -118 -542 -9 -80 -10 -442 -1 -528 5 -45 1
-74 -19 -135 -14 -42 -27 -90 -30 -107 -3 -16 -9 -38 -14 -47 -5 -10 -8 -18
-5 -18 3 0 1 -14 -4 -31 -34 -117 -31 -377 7 -534 4 -16 7 -32 8 -35 13 -62
49 -157 98 -260 73 -152 239 -344 381 -439 161 -109 386 -203 541 -226 22 -4
58 -10 79 -15 22 -5 44 -7 48 -4 4 3 8 2 8 -3 0 -4 12 -15 28 -24 15 -9 63
-38 107 -66 44 -27 95 -56 113 -64 17 -7 32 -17 32 -21 0 -5 6 -8 13 -8 7 0
37 -13 67 -28 51 -26 168 -76 180 -77 3 0 10 -3 15 -6 29 -18 267 -88 370
-110 33 -7 62 -13 65 -14 3 0 28 -4 55 -9 28 -4 62 -9 78 -12 71 -12 157 -16
327 -17 226 -2 284 3 540 48 54 10 190 48 285 81 55 19 107 36 115 38 8 3 30
12 48 21 18 9 38 18 45 19 18 3 233 112 296 151 31 18 70 49 88 68 17 18 37
34 45 34 26 0 100 13 141 24 23 6 49 12 57 14 41 8 177 58 254 95 48 22 88 40
90 40 12 0 179 109 231 150 67 54 168 157 205 210 14 19 28 40 33 45 10 13 51
78 52 85 0 3 10 23 21 45 109 210 146 506 99 778 -10 52 -26 120 -35 142 -4
11 -14 40 -21 65 -7 25 -17 50 -22 57 -5 7 -6 20 -3 30 24 79 25 523 0 648 -3
17 -7 48 -9 70 -2 22 -4 40 -5 40 -1 0 -4 14 -6 30 -3 17 -14 68 -25 115 -12
47 -22 90 -23 95 -12 49 -19 72 -23 85 -3 8 -7 20 -9 25 -7 31 -69 196 -91
244 -49 109 -58 127 -107 216 -146 268 -364 533 -608 740 -39 34 -108 87 -141
110 -18 11 -54 37 -82 56 -100 69 -319 188 -425 230 -20 7 -83 63 -150 131
-64 65 -120 118 -124 118 -4 0 -14 7 -23 16 -25 25 -155 110 -224 146 -102 54
-190 87 -299 112 -99 23 -262 27 -370 10z m144 -322 c2 -4 -5 -9 -17 -9 -17
-2 -19 0 -7 7 18 12 18 12 24 2z m76 -8 c0 -2 -13 -4 -30 -4 -16 0 -30 4 -30
8 0 5 14 7 30 4 17 -2 30 -6 30 -8z m37 0 c-3 -3 -12 -4 -19 -1 -8 3 -5 6 6 6
11 1 17 -2 13 -5z m103 -388 c47 -4 96 -9 110 -11 71 -9 121 -18 180 -32 36
-8 74 -17 85 -19 56 -11 244 -75 253 -87 24 -29 131 -249 146 -300 9 -29 18
-82 21 -118 5 -60 12 -104 15 -104 1 0 3 -7 5 -16 10 -54 61 -123 121 -166 38
-26 166 -71 214 -75 34 -3 35 -2 34 32 -1 43 -14 161 -18 169 -2 3 -7 28 -10
55 -4 27 -9 52 -11 55 -1 3 -6 22 -9 41 -3 19 -14 65 -24 102 -11 37 -17 70
-15 72 15 15 305 -243 388 -345 11 -13 41 -49 66 -79 127 -152 267 -405 342
-615 41 -117 56 -164 62 -194 2 -13 6 -30 9 -39 3 -9 7 -30 10 -46 3 -16 10
-52 15 -80 6 -28 13 -67 15 -88 l6 -36 -98 97 c-53 53 -128 122 -167 154 -38
32 -76 62 -82 67 -7 6 -43 31 -80 57 -38 26 -69 51 -71 55 -2 4 -8 8 -14 8 -5
0 -22 9 -36 19 -190 135 -654 320 -917 366 -16 2 -41 7 -55 10 -14 3 -38 7
-55 9 -16 3 -44 7 -60 10 -29 5 -90 12 -205 21 -30 3 -114 7 -186 10 -72 2
-142 9 -157 14 -14 6 -58 39 -96 75 -84 76 -154 108 -251 111 -105 3 -195 -31
-273 -104 -114 -107 -148 -288 -79 -432 18 -37 43 -78 57 -90 30 -29 31 -40 5
-57 -58 -36 -194 -247 -231 -357 -17 -51 -15 -45 -24 -82 -4 -20 -14 -33 -24
-34 -86 -3 -215 1 -221 8 -13 15 -75 278 -86 368 -3 22 -7 51 -10 65 -22 118
-22 548 1 630 2 8 6 36 9 62 5 46 53 266 61 278 2 4 6 17 9 31 7 36 42 135 78
221 32 75 34 77 98 109 122 61 370 157 370 144 0 -2 16 3 35 11 19 8 35 12 35
9 0 -2 12 0 28 6 15 6 38 12 52 14 14 2 54 9 90 15 96 17 106 18 215 26 55 3
101 7 102 8 4 3 145 -2 223 -8z m-1670 -604 c0 -4 -5 -23 -11 -42 -12 -42 -16
-56 -23 -101 -3 -19 -7 -43 -10 -54 -20 -98 -36 -278 -38 -415 -1 -94 9 -290
17 -332 3 -12 7 -40 10 -63 16 -107 38 -215 64 -310 11 -38 18 -71 16 -74 -5
-5 -336 -4 -341 2 -2 2 0 17 5 34 28 96 -44 315 -94 285 -11 -6 -55 -42 -118
-95 -12 -10 -50 -46 -85 -79 -34 -34 -64 -59 -66 -57 -2 2 2 38 9 79 77 441
264 818 568 1143 75 81 97 98 97 79z m2065 -797 c44 -8 97 -19 118 -24 20 -5
37 -6 37 -3 0 3 5 1 12 -6 7 -7 20 -12 30 -12 20 0 162 -44 213 -65 17 -7 57
-23 90 -36 154 -58 404 -197 552 -306 74 -54 91 -67 146 -115 l32 -28 -30 0
c-34 -1 -809 -1 -841 -1 -17 1 -24 13 -39 67 -22 82 -102 241 -152 303 -70 86
-154 163 -231 212 -53 33 -47 34 63 14z m-383 -276 c34 -11 85 -36 113 -55 52
-34 135 -111 135 -125 0 -4 6 -14 14 -21 17 -18 60 -102 74 -148 59 -183 6
-403 -130 -539 -235 -237 -625 -212 -822 53 -33 43 -71 115 -81 151 -5 17 -9
32 -10 35 -31 98 -19 252 27 356 78 178 248 302 438 321 30 3 56 6 58 8 7 6
130 -18 184 -36z m-1440 -848 c70 -140 77 -158 79 -191 2 -20 -9 -73 -21 -106
-11 -29 -14 -99 -6 -152 13 -87 104 -215 185 -260 113 -64 265 -63 376 2 81
48 152 138 171 218 6 29 19 29 67 -4 15 -11 27 -17 27 -13 0 3 13 -1 29 -9 16
-9 62 -25 102 -36 260 -73 541 -27 764 124 33 23 62 43 65 46 46 46 43 29 -8
-45 -33 -49 -69 -99 -79 -110 -10 -11 -34 -40 -54 -65 -71 -88 -230 -239 -334
-318 -218 -166 -467 -314 -651 -389 -66 -27 -140 -55 -154 -59 -165 -44 -247
-63 -286 -69 -27 -4 -65 -9 -84 -12 -19 -2 -71 -6 -115 -8 l-80 -3 -55 41
c-136 101 -282 242 -385 372 -22 28 -42 52 -45 55 -7 6 -51 68 -65 91 -5 9
-28 43 -49 75 -110 166 -238 475 -281 679 -3 11 -8 34 -11 50 -9 41 -14 70
-20 136 -5 48 -3 60 16 81 l21 25 405 1 404 0 72 -147z m358 132 c0 -8 7 -37
16 -64 9 -27 14 -52 11 -55 -12 -12 -107 105 -107 132 0 2 18 3 40 2 27 -1 40
-6 40 -15z m3044 -36 c17 -28 30 -53 30 -56 -1 -3 -5 -28 -9 -56 -8 -68 -32
-176 -58 -260 -11 -38 -21 -74 -23 -80 -15 -74 -149 -353 -230 -482 -47 -73
-57 -114 -47 -178 7 -41 69 -109 121 -131 51 -21 129 -14 173 16 l34 24 -25
-29 c-67 -79 -175 -165 -270 -217 -101 -56 -267 -108 -390 -123 -57 -6 -261
-8 -280 -1 -8 3 -40 7 -70 11 -72 8 -243 50 -328 82 -98 36 -123 39 -152 13
-49 -42 -65 -55 -95 -78 -16 -13 -50 -40 -74 -60 -24 -20 -55 -46 -69 -58
l-25 -21 79 -33 c43 -18 130 -50 192 -70 l114 -37 -44 -16 c-45 -17 -166 -51
-208 -60 -14 -3 -36 -8 -50 -11 -23 -6 -41 -9 -115 -21 -155 -25 -513 -25
-645 0 -13 3 -40 7 -60 10 -40 6 -48 8 -140 30 -77 19 -217 62 -237 74 -14 8
29 23 107 38 30 5 271 83 285 92 6 3 12 6 15 7 6 1 54 21 95 39 16 7 45 19 63
26 17 8 32 17 32 21 0 5 7 8 15 8 8 0 37 14 65 30 28 17 53 30 56 30 10 0 186
118 274 184 99 74 349 315 416 401 21 28 42 52 45 55 3 3 35 48 72 100 37 52
71 100 76 106 5 6 17 26 26 45 10 19 21 36 24 39 3 3 17 25 30 50 13 25 30 52
37 61 8 8 14 20 14 25 0 23 70 79 135 109 153 70 241 198 240 351 l0 52 374
-1 373 0 32 -50z m-4356 -1078 c-3 -8 -7 -3 -11 10 -4 17 -3 21 5 13 5 -5 8
-16 6 -23z m4422 -19 c-6 -11 -13 -20 -16 -20 -2 0 0 9 6 20 6 11 13 20 16 20
2 0 0 -9 -6 -20z m-4390 -25 c14 -19 14 -19 -2 -6 -10 7 -18 18 -18 24 0 6 1
8 3 6 1 -2 9 -13 17 -24z m4370 -9 c0 -2 -8 -10 -17 -17 -16 -13 -17 -12 -4 4
13 16 21 21 21 13z"/>
</g>
</svg>
